<?xml version="1.0" standalone="no"?>
<!DOCTYPE svg PUBLIC "-//W3C//DTD SVG 20010904//EN"
 "http://www.w3.org/TR/2001/REC-SVG-20010904/DTD/svg10.dtd">
<svg version="1.0" xmlns="http://www.w3.org/2000/svg"
 width="304.000000pt" height="376.000000pt" viewBox="0 0 304.000000 376.000000"
 preserveAspectRatio="xMidYMid meet">
<metadata>
Created by potrace 1.11, written by Peter Selinger 2001-2013
</metadata>
<g transform="translate(0.000000,376.000000) scale(0.100000,-0.100000)"
fill="#000000" stroke="none">
<path d="M36 3747 c-12 -9 -17 -23 -14 -47 4 -42 41 -61 83 -42 20 9 25 19 25
46 0 50 -52 74 -94 43z m59 -17 c4 -6 -5 -10 -20 -10 -15 0 -24 4 -20 10 3 6
12 10 20 10 8 0 17 -4 20 -10z m-1 -49 c3 -5 0 -11 -8 -14 -15 -6 -26 1 -26
15 0 11 27 10 34 -1z"/>
<path d="M217 3742 c-22 -24 -22 -56 0 -73 15 -13 15 -12 4 9 -13 24 -2 56 21
64 35 13 66 -29 47 -64 -11 -21 -11 -22 4 -9 22 18 22 54 -1 74 -24 22 -55 21
-75 -1z"/>
<path d="M397 3742 c-22 -24 -22 -56 0 -73 15 -13 15 -12 4 9 -13 24 -2 56 21
64 35 13 66 -29 47 -64 -11 -21 -11 -22 4 -9 22 18 22 54 -1 74 -24 22 -55 21
-75 -1z"/>
<path d="M1168 3742 c-19 -4 -34 -43 -25 -65 7 -18 63 -19 77 -2 28 33 -7 78
-52 67z m4 -38 c-3 -15 -8 -22 -14 -16 -9 9 -1 42 12 42 4 0 5 -12 2 -26z m41
12 c6 -15 -18 -55 -26 -46 -8 7 4 60 13 60 4 0 10 -6 13 -14z"/>
<path d="M1538 3744 c-12 -11 -10 -84 2 -84 6 0 10 5 10 12 0 9 3 9 12 0 15
-15 58 -16 58 -2 0 6 -11 10 -25 10 -14 0 -25 5 -25 11 0 5 -4 8 -9 4 -5 -3
-11 9 -13 26 -2 17 -6 27 -10 23z"/>
<path d="M1752 3708 c2 -35 7 -43 22 -43 11 0 22 7 24 15 5 13 3 13 -11 1 -15
-12 -17 -10 -17 22 0 20 -5 39 -11 42 -7 5 -9 -8 -7 -37z"/>
<path d="M1058 3733 c12 -2 30 -2 40 0 9 3 -1 5 -23 4 -22 0 -30 -2 -17 -4z"/>
<path d="M1280 3700 c0 -22 5 -40 10 -40 6 0 10 5 10 11 0 5 5 7 11 4 6 -4 17
1 24 11 13 18 14 18 8 -3 -3 -14 -1 -23 6 -23 6 0 11 17 11 40 0 43 -16 53
-29 18 l-8 -22 -12 22 c-18 34 -31 26 -31 -18z"/>
<path d="M1573 3733 c9 -2 25 -2 35 0 9 3 1 5 -18 5 -19 0 -27 -2 -17 -5z"/>
<path d="M1640 3732 c0 -5 17 -9 38 -8 25 1 37 -3 37 -13 0 -14 -12 -23 -50
-37 -19 -7 -19 -8 2 -11 36 -7 65 14 61 45 -3 24 -8 27 -45 30 -24 2 -43 -1
-43 -6z"/>
<path d="M1816 3715 c8 -37 24 -57 24 -29 0 11 -7 29 -15 40 -14 18 -15 17 -9
-11z"/>
<path d="M1877 3733 c20 -4 21 -7 12 -24 -14 -27 5 -49 40 -48 l26 1 -28 10
c-34 12 -32 37 3 55 23 12 21 13 -25 11 -27 0 -40 -3 -28 -5z"/>
<path d="M3030 3680 l0 -50 -1517 -3 -1518 -2 1517 -3 1518 -2 3 -1812 2
-1813 3 1868 c1 1027 0 1867 -3 1867 -3 0 -5 -22 -5 -50z"/>
<path d="M1390 3710 c12 -8 12 -10 -3 -16 -28 -10 -20 -34 11 -34 26 0 28 3
24 30 -3 23 -9 30 -26 30 -17 0 -18 -2 -6 -10z"/>
<path d="M1436 3705 c-9 -23 4 -45 27 -45 20 0 20 0 1 15 -19 15 -19 15 0 30
19 15 19 15 -1 15 -11 0 -23 -7 -27 -15z"/>
<path d="M1035 3698 c-4 -9 -4 -22 0 -28 8 -14 85 -13 85 1 0 7 -9 9 -23 6
-25 -7 -41 1 -49 23 -5 13 -7 12 -13 -2z"/>
<path d="M248 3653 c7 -3 16 -2 19 1 4 3 -2 6 -13 5 -11 0 -14 -3 -6 -6z"/>
<path d="M428 3653 c7 -3 16 -2 19 1 4 3 -2 6 -13 5 -11 0 -14 -3 -6 -6z"/>
<path d="M1578 3301 c-68 -43 -118 -161 -69 -161 30 0 52 11 44 23 -4 6 -1 7
6 2 29 -17 101 82 101 140 0 34 -24 33 -82 -4z m72 -2 c0 -32 -32 -91 -52 -97
-10 -2 -15 -9 -11 -15 3 -5 2 -7 -4 -4 -6 4 -24 2 -41 -3 -18 -4 -34 -5 -36
-1 -12 18 38 92 78 116 50 30 66 31 66 4z m-117 -146 c-7 -2 -19 -2 -25 0 -7
3 -2 5 12 5 14 0 19 -2 13 -5z"/>
<path d="M1368 3143 c6 -2 18 -2 25 0 6 3 1 5 -13 5 -14 0 -19 -2 -12 -5z"/>
<path d="M1570 3130 c-55 -19 -46 -19 60 6 38 8 46 12 25 13 -16 0 -55 -9 -85
-19z"/>
<path d="M1425 3130 c27 -12 43 -12 25 0 -8 5 -22 9 -30 9 -10 0 -8 -3 5 -9z"/>
<path d="M1715 3124 c17 -8 40 -25 53 -37 l22 -21 -29 -30 c-71 -73 -69 -170
4 -246 18 -19 35 -44 38 -55 5 -19 5 -19 6 1 0 11 -13 33 -30 50 -77 71 -78
184 -4 254 19 17 22 27 15 40 -11 21 -71 60 -91 60 -8 0 0 -7 16 -16z"/>
<path d="M1267 3109 c-29 -22 -77 -96 -77 -119 0 -8 12 10 26 38 16 31 41 63
62 77 20 14 32 25 27 25 -6 0 -22 -10 -38 -21z"/>
<path d="M1478 3113 c7 -3 16 -2 19 1 4 3 -2 6 -13 5 -11 0 -14 -3 -6 -6z"/>
<path d="M1183 2895 c0 -44 2 -61 4 -37 2 23 2 59 0 80 -2 20 -4 1 -4 -43z"/>
<path d="M1335 2878 c-26 -29 -62 -75 -80 -101 l-33 -49 -16 44 c-11 30 -14
34 -11 13 10 -54 67 -158 111 -202 49 -49 84 -55 164 -27 41 14 50 14 112 -2
64 -17 70 -17 103 -1 33 16 115 123 115 151 0 6 -13 -12 -29 -40 -35 -60 -93
-114 -123 -114 -12 0 -45 8 -75 17 -50 16 -56 16 -106 0 -67 -21 -92 -21 -126
-1 -32 19 -101 110 -101 133 0 23 60 121 111 182 54 65 43 63 -16 -3z"/>
<path d="M1264 2420 c-32 -13 -64 -59 -64 -92 0 -76 65 -123 133 -94 42 17 57
41 57 91 0 47 -13 71 -50 90 -32 17 -45 18 -76 5z m60 -46 c33 -32 11 -114
-29 -114 -18 0 -45 39 -45 65 0 26 27 65 45 65 7 0 21 -7 29 -16z"/>
<path d="M1462 2423 c-29 -6 -56 -46 -47 -73 4 -11 24 -29 46 -40 21 -11 39
-24 39 -29 0 -14 -29 -22 -54 -15 -16 4 -25 0 -30 -12 -8 -21 -8 -22 29 -25
56 -4 75 1 91 26 23 35 6 71 -42 91 -42 18 -40 40 4 38 19 -1 33 4 37 14 3 8
4 16 3 17 -8 6 -56 11 -76 8z"/>
<path d="M1648 2373 l26 -47 -27 -48 -27 -48 28 0 c22 0 30 7 41 33 l12 32 17
-32 c12 -26 22 -33 44 -33 l28 0 -29 47 -30 48 25 44 c13 24 24 45 24 47 0 2
-11 4 -25 4 -19 0 -28 -8 -38 -32 l-13 -32 -13 32 c-11 25 -19 32 -42 32 l-28
0 27 -47z"/>
<path d="M1315 2110 c3 -5 10 -10 16 -10 5 0 9 5 9 10 0 6 -7 10 -16 10 -8 0
-12 -4 -9 -10z"/>
<path d="M1024 2094 c-3 -10 -10 -30 -15 -43 -5 -13 -8 -25 -6 -28 3 -2 12 15
21 38 9 23 15 44 12 47 -3 3 -8 -4 -12 -14z"/>
<path d="M1061 2102 c-1 -18 28 -86 34 -80 3 3 -3 25 -14 49 -11 24 -20 38
-20 31z"/>
<path d="M1080 2100 c0 -5 5 -10 10 -10 6 0 10 5 10 10 0 6 -4 10 -10 10 -5 0
-10 -4 -10 -10z"/>
<path d="M1250 2106 c0 -2 7 -6 15 -10 8 -3 15 -1 15 4 0 6 -7 10 -15 10 -8 0
-15 -2 -15 -4z"/>
<path d="M1480 2101 c0 -5 7 -12 16 -15 14 -5 15 -4 4 9 -14 17 -20 19 -20 6z"/>
<path d="M1648 2074 c3 -24 0 -39 -9 -45 -10 -6 -7 -9 11 -9 24 0 25 3 22 45
-3 26 -9 45 -16 45 -8 0 -11 -12 -8 -36z"/>
<path d="M1704 2086 c-9 -38 4 -68 29 -64 18 2 22 10 22 43 0 34 -4 40 -22 43
-17 3 -24 -3 -29 -22z m41 -21 c0 -32 -21 -46 -27 -18 -6 27 3 54 16 50 6 -2
11 -16 11 -32z"/>
<path d="M1827 2103 c-15 -14 -6 -44 16 -52 l22 -9 -25 -10 c-24 -10 -24 -11
-3 -11 30 -1 49 34 34 65 -10 23 -31 31 -44 17z m31 -20 c-4 -22 -22 -20 -26
1 -2 10 3 16 13 16 10 0 15 -7 13 -17z"/>
<path d="M1945 2065 c0 -42 2 -45 25 -44 14 0 19 3 13 6 -8 2 -13 22 -13 44 0
25 -5 39 -12 39 -9 0 -13 -16 -13 -45z"/>
<path d="M1312 2070 c-7 -11 -27 -26 -45 -34 -17 -8 -26 -15 -19 -15 21 -2 69
27 76 45 9 24 2 26 -12 4z"/>
<path d="M1393 2083 c15 -2 27 -8 27 -13 0 -5 -12 -11 -27 -13 l-28 -4 28 -2
c38 -2 34 -19 -5 -24 -32 -4 -32 -4 5 -5 36 -2 37 -1 37 33 0 33 -2 35 -32 34
-31 -2 -31 -2 -5 -6z"/>
<path d="M1542 2070 c-7 -12 -24 -25 -39 -31 -14 -5 -23 -12 -20 -15 9 -9 66
25 77 46 14 26 -2 26 -18 0z"/>
<path d="M1240 2076 c0 -2 7 -6 15 -10 8 -3 15 -1 15 4 0 6 -7 10 -15 10 -8 0
-15 -2 -15 -4z"/>
<path d="M1133 2063 c15 -2 39 -2 55 0 15 2 2 4 -28 4 -30 0 -43 -2 -27 -4z"/>
<path d="M1780 2030 c0 -5 5 -10 10 -10 6 0 10 5 10 10 0 6 -4 10 -10 10 -5 0
-10 -4 -10 -10z"/>
<path d="M1895 2030 c-3 -5 -1 -10 4 -10 6 0 11 5 11 10 0 6 -2 10 -4 10 -3 0
-8 -4 -11 -10z"/>
<path d="M1073 1893 c236 -2 618 -2 850 0 232 1 40 2 -428 2 -467 0 -657 -1
-422 -2z"/>
<path d="M622 1810 c-1 -40 3 -71 10 -78 17 -17 1709 -17 1726 0 7 7 11 38 10
78 l-2 65 -5 -70 -6 -70 -860 0 -860 0 -6 70 -5 70 -2 -65z"/>
<path d="M1800 1860 c0 -5 -19 -11 -42 -12 l-43 -1 38 -4 c21 -3 37 -10 37
-17 0 -14 -27 -40 -50 -49 -10 -4 -9 -6 6 -6 21 -1 38 15 62 56 15 27 16 43 2
43 -5 0 -10 -4 -10 -10z"/>
<path d="M798 1830 c-5 -17 -22 -37 -37 -45 -20 -11 -22 -14 -8 -15 24 0 67
44 67 70 0 29 -9 25 -22 -10z"/>
<path d="M973 1815 c0 -27 2 -37 4 -22 3 20 9 27 19 23 8 -3 21 -9 29 -12 8
-3 15 -2 15 4 0 6 -13 13 -29 17 -17 3 -32 14 -34 23 -3 9 -5 -5 -4 -33z"/>
<path d="M1083 1849 c-23 -8 -33 -39 -13 -39 6 0 10 5 10 10 0 6 14 10 30 10
28 0 30 -2 20 -21 -6 -11 -21 -24 -33 -29 -22 -9 -22 -9 -1 -9 26 -1 57 32 52
55 -4 22 -37 34 -65 23z"/>
<path d="M1865 1849 c-29 -6 -28 -7 10 -9 l40 -3 -45 -7 c-25 -4 -35 -8 -22
-8 26 -2 29 -27 5 -41 -17 -10 -17 -10 0 -11 9 0 23 11 29 25 6 14 17 25 24
25 10 0 24 21 24 35 0 5 -28 2 -65 -6z"/>
<path d="M2073 1815 c0 -27 2 -37 4 -22 3 20 9 27 19 23 8 -3 21 -9 29 -12 8
-3 15 -2 15 4 0 6 -13 13 -29 17 -17 3 -32 14 -34 23 -3 9 -5 -5 -4 -33z"/>
<path d="M740 1843 c0 -4 5 -15 10 -23 8 -13 10 -13 10 2 0 9 -4 20 -10 23 -5
3 -10 3 -10 -2z"/>
<path d="M878 1843 c39 -5 41 -24 5 -52 -21 -15 -24 -20 -11 -21 18 0 58 45
58 66 0 10 -12 14 -42 12 -37 -1 -39 -2 -10 -5z"/>
<path d="M1318 1843 c18 -2 30 -9 26 -14 -3 -5 -10 -7 -15 -4 -5 4 -9 1 -9 -4
0 -6 -9 -20 -20 -31 -12 -12 -15 -20 -7 -20 12 0 77 62 77 74 0 3 -19 5 -42 4
-38 -1 -39 -2 -10 -5z"/>
<path d="M1538 1843 c18 -2 30 -9 26 -14 -3 -5 -10 -7 -15 -4 -5 4 -9 1 -9 -4
0 -6 -9 -20 -20 -31 -12 -12 -15 -20 -7 -20 12 0 77 62 77 74 0 3 -19 5 -42 4
-38 -1 -39 -2 -10 -5z"/>
<path d="M1620 1828 c0 -4 5 -10 10 -13 6 -3 10 0 10 7 0 9 3 9 10 -2 8 -13
10 -13 10 2 0 11 -7 16 -20 15 -11 -1 -20 -5 -20 -9z"/>
<path d="M1681 1828 c0 -9 -13 -26 -27 -37 -15 -12 -22 -21 -16 -21 22 0 54
36 49 55 -4 16 -5 16 -6 3z"/>
<path d="M1198 1823 c18 -7 15 -41 -5 -46 -10 -3 0 -5 22 -6 32 0 36 2 23 10
-10 5 -18 16 -18 24 0 7 8 16 18 18 9 3 1 5 -18 5 -19 0 -29 -2 -22 -5z"/>
<path d="M1430 1810 c0 -5 5 -10 10 -10 6 0 10 5 10 10 0 6 -4 10 -10 10 -5 0
-10 -4 -10 -10z"/>
<path d="M1968 1813 c12 -2 32 -2 45 0 12 2 2 4 -23 4 -25 0 -35 -2 -22 -4z"/>
<path d="M2160 1780 c0 -5 5 -10 10 -10 6 0 10 5 10 10 0 6 -4 10 -10 10 -5 0
-10 -4 -10 -10z"/>
<path d="M2230 1780 c0 -5 5 -10 11 -10 5 0 7 5 4 10 -3 6 -8 10 -11 10 -2 0
-4 -4 -4 -10z"/>
<path d="M725 1510 c-3 -5 -23 -11 -43 -11 l-37 -2 40 -6 40 -6 -33 -34 c-37
-38 -38 -46 -2 -28 21 11 58 66 60 90 0 10 -18 9 -25 -3z"/>
<path d="M767 1504 c-4 -4 -7 -25 -7 -46 l0 -38 46 0 45 0 -3 43 c-3 40 -4 42
-38 45 -20 2 -39 0 -43 -4z m63 -39 c0 -20 -5 -25 -25 -25 -20 0 -25 5 -25 25
0 20 5 25 25 25 20 0 25 -5 25 -25z"/>
<path d="M890 1495 c0 -8 -7 -15 -16 -15 -8 0 -12 -5 -9 -10 4 -6 11 -8 16 -5
5 4 9 -5 9 -19 0 -24 4 -26 38 -25 31 2 32 3 9 6 -22 4 -28 9 -25 25 2 12 10
24 18 26 13 5 13 3 1 -11 -15 -19 -1 -23 17 -5 21 21 14 39 -13 32 -15 -4 -25
-2 -25 5 0 6 -4 11 -10 11 -5 0 -10 -7 -10 -15z"/>
<path d="M1104 1496 c-8 -9 -8 -17 1 -29 11 -15 13 -16 19 -2 6 17 26 21 26 5
0 -5 -9 -19 -20 -30 l-20 -20 20 0 c11 0 23 8 26 18 3 9 9 24 14 34 6 11 5 20
-4 28 -11 8 -15 8 -18 -2 -4 -10 -8 -10 -19 -2 -11 9 -17 9 -25 0z"/>
<path d="M1963 1465 c0 -27 2 -38 4 -22 2 15 2 37 0 50 -2 12 -4 0 -4 -28z"/>
<path d="M1303 1493 c21 -6 22 -26 2 -43 -23 -19 -18 -30 13 -29 16 1 20 3 10
6 -22 6 -23 12 -1 28 22 16 10 45 -19 44 -17 -1 -18 -2 -5 -6z"/>
<path d="M1400 1484 c0 -9 8 -23 18 -30 16 -12 15 -13 -8 -23 -25 -10 -25 -10
-2 -10 29 -1 41 28 19 44 -22 16 -21 22 1 28 13 4 11 5 -5 6 -15 1 -23 -5 -23
-15z"/>
<path d="M1502 1488 c-27 -27 -6 -68 35 -68 17 0 23 6 23 23 -1 21 -1 22 -15
3 -11 -15 -18 -17 -26 -9 -17 17 -6 47 21 54 l25 7 -25 1 c-15 1 -31 -4 -38
-11z"/>
<path d="M1582 1460 c-1 -36 1 -41 8 -22 5 12 14 22 20 22 6 0 15 -10 20 -22
7 -19 9 -14 8 22 0 25 -2 37 -5 28 -2 -10 -13 -18 -23 -18 -10 0 -21 8 -23 18
-3 9 -5 -3 -5 -28z"/>
<path d="M1750 1460 c0 -22 5 -40 10 -40 6 0 10 18 10 40 0 22 -4 40 -10 40
-5 0 -10 -18 -10 -40z"/>
<path d="M2024 1486 c-3 -8 -4 -25 -2 -38 2 -19 10 -23 38 -25 19 0 25 1 13 4
-12 2 -27 11 -33 19 -15 18 1 41 33 47 15 3 11 5 -11 6 -20 0 -35 -4 -38 -13z"/>
<path d="M2340 1480 c0 -11 7 -20 15 -20 21 0 19 -28 -2 -33 -13 -4 -12 -5 5
-6 29 -1 41 28 19 44 -22 16 -21 22 1 28 10 3 6 5 -10 6 -22 1 -28 -4 -28 -19z"/>
<path d="M987 1474 c6 -16 43 -14 43 2 0 6 -11 12 -24 12 -16 0 -23 -5 -19
-14z"/>
<path d="M1041 1469 c-8 -15 -23 -32 -35 -37 l-21 -11 21 0 c27 -1 57 32 52
56 -4 15 -7 14 -17 -8z"/>
<path d="M1852 1459 c4 -42 23 -49 22 -7 0 18 -6 34 -13 36 -9 3 -11 -6 -9
-29z"/>
<path d="M1662 1473 c16 -4 16 -6 2 -29 -16 -24 -16 -24 17 -23 19 1 26 3 17
6 -20 5 -23 18 -8 28 19 12 10 25 -17 24 -17 -1 -21 -3 -11 -6z"/>
<path d="M1791 1448 c1 -21 3 -26 6 -13 8 34 23 41 23 12 0 -15 5 -27 11 -27
6 0 9 12 7 28 -2 19 -9 28 -25 30 -20 3 -23 -1 -22 -30z"/>
<path d="M1894 1466 c-10 -25 3 -46 28 -45 17 1 18 2 6 6 -22 6 -24 23 -2 23
20 0 13 24 -9 28 -10 2 -20 -4 -23 -12z"/>
<path d="M2101 1467 c-17 -21 -3 -49 23 -45 15 2 21 10 21 28 0 28 -26 38 -44
17z m31 -29 c-15 -15 -26 -4 -18 18 5 13 9 15 18 6 9 -9 9 -15 0 -24z"/>
<path d="M2171 1448 c1 -22 3 -26 6 -13 3 11 10 26 15 33 8 9 6 12 -6 12 -12
0 -16 -9 -15 -32z"/>
<path d="M2214 1466 c-10 -25 3 -46 28 -45 17 1 18 2 6 6 -22 6 -24 23 -2 23
20 0 13 24 -9 28 -10 2 -20 -4 -23 -12z"/>
<path d="M2312 1450 c0 -19 2 -27 5 -17 2 9 2 25 0 35 -3 9 -5 1 -5 -18z"/>
<path d="M927 1216 c-4 -10 -14 -12 -29 -8 -21 5 -22 4 -9 -11 12 -15 11 -20
-5 -39 -19 -21 -19 -21 1 -13 11 4 30 8 43 8 23 -1 30 11 12 22 -7 4 -7 12 0
25 12 23 13 30 1 30 -5 0 -11 -6 -14 -14z"/>
<path d="M985 1221 c-3 -5 3 -12 12 -14 17 -4 17 -5 1 -6 -22 -1 -24 -21 -3
-21 8 0 15 -9 15 -20 0 -16 6 -20 33 -19 29 1 29 2 8 8 -34 9 -39 31 -7 31 35
0 33 20 -1 21 -21 1 -23 2 -8 6 40 10 39 23 -2 23 -23 0 -44 -4 -48 -9z"/>
<path d="M1100 1200 c0 -16 5 -30 10 -30 6 0 10 14 10 30 0 17 -4 30 -10 30
-5 0 -10 -13 -10 -30z"/>
<path d="M1148 1198 c-2 -23 -11 -36 -28 -45 l-25 -13 26 0 c34 0 49 17 49 57
0 43 -18 43 -22 1z"/>
<path d="M1297 1213 c-2 -5 -4 -23 -5 -40 -2 -29 1 -33 22 -33 22 0 25 4 24
40 0 32 -4 40 -19 40 -10 0 -20 -3 -22 -7z m33 -7 c0 -3 -4 -8 -10 -11 -5 -3
-10 -1 -10 4 0 6 5 11 10 11 6 0 10 -2 10 -4z m0 -46 c0 -5 -4 -10 -9 -10 -6
0 -13 5 -16 10 -3 6 1 10 9 10 9 0 16 -4 16 -10z"/>
<path d="M1394 1206 c-12 -32 0 -61 29 -64 23 -3 27 0 26 20 -1 17 -3 18 -6 6
-5 -22 -29 -24 -37 -3 -8 23 3 43 27 48 18 3 16 5 -6 6 -16 0 -30 -5 -33 -13z"/>
<path d="M1470 1181 c0 -37 2 -41 25 -41 23 0 25 3 22 38 -2 30 -7 38 -25 40
-20 3 -22 -1 -22 -37z m40 -15 c0 -3 -4 -8 -10 -11 -5 -3 -10 -1 -10 4 0 6 5
11 10 11 6 0 10 -2 10 -4z"/>
<path d="M1585 1180 c0 -32 4 -40 19 -40 15 0 16 3 6 15 -7 8 -10 26 -8 40 3
15 1 25 -6 25 -7 0 -12 -16 -11 -40z"/>
<path d="M1644 1206 c-11 -29 0 -61 21 -61 30 0 33 42 3 47 l-23 5 25 11 c25
11 25 11 2 11 -12 1 -25 -5 -28 -13z m33 -52 c-9 -9 -28 6 -21 18 4 6 10 6 17
-1 6 -6 8 -13 4 -17z"/>
<path d="M1714 1206 c-11 -28 0 -61 21 -61 16 0 20 7 20 35 0 25 -5 36 -18 38
-9 2 -20 -3 -23 -12z m36 -26 c0 -10 -5 -22 -10 -25 -13 -8 -24 20 -16 41 8
20 26 9 26 -16z"/>
<path d="M1784 1206 c-11 -28 0 -61 21 -61 16 0 20 7 20 35 0 25 -5 36 -18 38
-9 2 -20 -3 -23 -12z m36 -26 c0 -25 -18 -36 -26 -16 -8 21 3 49 16 41 5 -3
10 -15 10 -25z"/>
<path d="M1881 1178 c1 -25 4 -33 6 -20 4 22 5 23 19 5 14 -17 14 -17 26 2 12
19 12 19 19 -5 6 -20 7 -17 8 18 1 44 -13 57 -24 22 -3 -11 -10 -20 -15 -20
-4 0 -10 9 -13 20 -9 37 -27 21 -26 -22z"/>
<path d="M1982 1180 c-1 -36 1 -41 8 -22 5 12 14 22 20 22 6 0 15 -10 20 -22
7 -19 9 -14 8 22 0 25 -2 37 -5 28 -2 -10 -13 -18 -23 -18 -10 0 -21 8 -23 18
-3 9 -5 -3 -5 -28z"/>
<path d="M2160 1180 c0 -36 3 -40 25 -40 31 0 50 32 35 60 -6 12 -21 20 -35
20 -22 0 -25 -4 -25 -40z m45 0 c0 -16 -6 -26 -17 -28 -14 -3 -18 3 -18 28 0
25 4 31 18 28 11 -2 17 -12 17 -28z"/>
<path d="M2240 1180 c0 -39 2 -41 26 -38 15 2 32 11 38 21 15 24 -3 51 -38 55
-24 3 -26 1 -26 -38z m45 0 c0 -13 -6 -25 -12 -27 -16 -6 -27 21 -19 43 9 23
31 11 31 -16z"/>
<path d="M2320 1180 c0 -22 5 -40 10 -40 6 0 10 8 10 18 1 16 1 16 11 0 5 -10
15 -18 20 -18 6 0 7 5 3 12 -5 7 -7 25 -6 40 2 24 -1 28 -23 28 -23 0 -25 -4
-25 -40z m35 21 c3 -5 1 -12 -5 -16 -5 -3 -10 1 -10 9 0 18 6 21 15 7z"/>
<path d="M2403 1213 c20 -5 23 -23 5 -23 -8 0 -5 -7 6 -15 19 -14 18 -15 -5
-24 l-24 -10 27 0 c25 -1 27 2 26 39 0 37 -3 40 -27 39 -17 -1 -20 -3 -8 -6z"/>
<path d="M2070 1190 c12 -7 12 -12 2 -22 -19 -19 -14 -28 16 -27 22 0 23 2 9
8 -17 6 -17 8 -3 20 24 20 19 31 -11 31 -22 0 -25 -2 -13 -10z"/>
<path d="M552 948 c-6 -8 -9 -18 -5 -21 3 -4 2 -7 -3 -7 -5 0 -9 -14 -10 -30
-1 -34 -6 -32 123 -35 l81 -1 4 36 c2 24 -2 42 -14 54 -15 17 -16 17 -21 -1
-4 -15 -5 -15 -6 -1 -1 13 -7 15 -28 9 -25 -7 -27 -11 -25 -44 2 -21 -1 -37
-7 -37 -6 0 -8 7 -4 16 5 13 2 15 -15 9 -13 -4 -22 -2 -22 4 0 6 7 11 15 11 9
0 15 9 15 21 0 18 -5 21 -30 17 -16 -2 -31 0 -33 5 -1 5 -8 3 -15 -5z m58 -18
c0 -5 -10 -10 -22 -10 -19 0 -20 2 -8 10 19 13 30 13 30 0z m97 -32 c-3 -8 -6
-5 -6 6 -1 11 2 17 5 13 3 -3 4 -12 1 -19z m20 -20 c-3 -7 -5 -2 -5 12 0 14 2
19 5 13 2 -7 2 -19 0 -25z"/>
<path d="M808 952 c-21 -2 -38 -7 -38 -13 0 -12 77 -12 85 0 8 13 -4 17 -47
13z"/>
<path d="M990 940 c0 -5 9 -10 20 -10 27 0 25 -8 -7 -42 -28 -29 -20 -38 13
-14 16 13 21 13 36 0 11 -10 18 -12 23 -5 3 6 -1 14 -10 17 -12 5 -14 14 -10
35 6 28 5 29 -29 29 -20 0 -36 -4 -36 -10z"/>
<path d="M1102 929 c-17 -27 -7 -37 16 -16 10 10 24 17 31 17 19 0 -6 -38 -37
-54 -26 -15 -26 -15 -4 -16 26 0 72 41 72 65 0 8 -9 15 -19 15 -11 0 -25 2
-33 5 -7 3 -19 -4 -26 -16z"/>
<path d="M1762 905 c0 -32 2 -42 6 -27 4 13 12 23 17 23 6 0 13 -10 17 -23 5
-20 6 -18 7 10 1 25 -3 32 -18 32 -11 0 -22 8 -24 18 -3 9 -5 -5 -5 -33z"/>
<path d="M920 925 c-7 -8 -19 -15 -26 -15 -8 0 -14 -4 -14 -10 0 -5 7 -10 15
-10 8 0 15 -7 15 -15 0 -8 4 -15 10 -15 5 0 7 7 3 15 -3 9 2 24 11 34 10 11
13 22 8 25 -5 3 -15 -1 -22 -9z"/>
<path d="M1291 898 c1 -35 2 -38 8 -18 l7 25 9 -24 c7 -24 8 -24 21 -6 12 17
14 17 14 2 0 -9 5 -17 10 -17 6 0 10 18 10 40 0 46 -16 52 -31 13 l-11 -28
-10 28 c-14 40 -28 33 -27 -15z"/>
<path d="M1860 900 c0 -22 5 -40 10 -40 6 0 10 9 10 20 0 23 27 17 33 -8 3
-10 5 3 5 28 0 25 -2 37 -5 28 -5 -22 -33 -24 -33 -3 0 8 -4 15 -10 15 -5 0
-10 -18 -10 -40z"/>
<path d="M1940 900 c0 -41 1 -41 33 -38 29 3 32 6 32 38 0 32 -3 35 -32 38
-32 3 -33 3 -33 -38z m50 15 c10 -12 10 -18 0 -30 -19 -23 -30 -18 -30 15 0
33 11 38 30 15z"/>
<path d="M1598 924 c-11 -10 5 -64 19 -64 13 0 13 3 3 15 -9 11 -10 18 -1 29
9 10 8 15 -3 19 -8 3 -16 4 -18 1z"/>
<path d="M778 913 c26 -5 27 -11 5 -35 -15 -17 -15 -18 1 -18 9 0 21 11 26 24
5 13 17 26 27 29 10 3 -4 5 -32 4 -27 0 -40 -2 -27 -4z"/>
<path d="M1394 911 c18 -7 18 -8 3 -14 -27 -10 -21 -37 9 -37 20 0 25 4 20 16
-3 9 -6 22 -6 30 0 8 -9 14 -22 13 -21 0 -21 -1 -4 -8z m16 -31 c0 -5 -5 -10
-11 -10 -5 0 -7 5 -4 10 3 6 8 10 11 10 2 0 4 -4 4 -10z"/>
<path d="M1444 905 c-10 -24 4 -45 28 -44 17 1 18 2 6 6 -10 2 -18 13 -18 23
0 10 8 21 18 23 12 4 11 5 -6 6 -12 0 -25 -6 -28 -14z"/>
<path d="M1502 890 c0 -19 2 -27 5 -17 2 9 2 25 0 35 -3 9 -5 1 -5 -18z"/>
<path d="M1531 888 c0 -18 3 -26 6 -18 3 8 11 21 17 29 9 11 12 9 17 -15 l7
-29 1 33 c1 28 -2 32 -24 32 -22 0 -25 -4 -24 -32z"/>
<path d="M1644 905 c-9 -23 3 -45 25 -45 23 0 35 28 20 46 -15 18 -38 18 -45
-1z m36 -21 c0 -16 -16 -19 -25 -4 -8 13 4 32 16 25 5 -4 9 -13 9 -21z"/>
<path d="M1710 906 c0 -8 5 -18 12 -22 8 -5 6 -10 -8 -15 -18 -7 -17 -8 3 -8
29 -1 40 19 18 31 -14 8 -15 12 -4 19 11 7 10 9 -3 9 -10 0 -18 -6 -18 -14z"/>
<path d="M1243 713 c142 -2 372 -2 510 0 139 1 23 2 -258 2 -280 0 -394 -1
-252 -2z"/>
<path d="M962 630 c-1 -40 3 -71 10 -78 17 -17 1029 -17 1046 0 7 7 11 38 10
77 l-2 66 -5 -70 -6 -70 -520 0 -520 0 -6 70 -5 70 -2 -65z"/>
<path d="M1172 632 c-1 -40 2 -48 19 -49 10 -1 19 5 19 13 0 20 18 18 23 -3 4
-17 5 -17 6 0 0 9 9 17 19 18 14 0 14 2 -3 9 -13 6 -15 9 -5 9 13 1 13 2 0 11
-13 8 -13 10 2 10 11 0 15 5 12 15 -5 12 -10 13 -20 4 -10 -8 -14 -8 -14 0 0
6 -13 11 -29 11 -28 0 -29 -2 -29 -48z m49 11 c-11 -5 -11 -7 0 -14 11 -7 10
-9 -3 -9 -18 0 -23 11 -11 23 3 4 11 7 17 6 6 0 5 -3 -3 -6z"/>
<path d="M1292 638 c3 -39 6 -43 32 -46 16 -2 32 2 37 10 15 23 10 32 -9 15
-30 -27 -42 -20 -42 23 0 22 -5 40 -11 40 -6 0 -9 -17 -7 -42z"/>
<path d="M1501 653 c-7 -14 -7 -23 -1 -23 6 0 11 -12 11 -27 2 -25 2 -24 9 7
l7 35 2 -35 c2 -19 5 -29 8 -22 2 6 11 12 19 12 9 0 12 -4 9 -10 -3 -5 1 -10
9 -10 11 0 16 10 17 28 0 15 2 37 3 50 2 21 -1 23 -40 21 -34 -2 -45 -8 -53
-26z"/>
<path d="M1618 669 c-11 -7 -7 -41 7 -51 6 -5 5 -8 -3 -8 -10 0 -10 -3 0 -14
9 -10 15 -11 21 -2 5 8 9 8 15 0 4 -5 16 -10 27 -10 17 0 20 7 20 48 l1 48
-39 -2 c-21 -2 -43 -6 -49 -9z m72 -3 c0 -3 -4 -8 -10 -11 -5 -3 -10 -1 -10 4
0 6 5 11 10 11 6 0 10 -2 10 -4z"/>
<path d="M1395 633 c4 -21 8 -40 10 -42 8 -7 35 9 35 20 0 8 -4 8 -15 -1 -13
-11 -15 -7 -15 24 0 20 -5 36 -11 36 -8 0 -9 -12 -4 -37z"/>
<path d="M1462 636 c6 -19 14 -33 19 -31 10 7 0 42 -16 55 -11 9 -12 5 -3 -24z"/>
<path d="M1720 600 c0 -5 5 -10 10 -10 6 0 10 5 10 10 0 6 -4 10 -10 10 -5 0
-10 -4 -10 -10z"/>
<path d="M1790 600 c0 -5 5 -10 11 -10 5 0 7 5 4 10 -3 6 -8 10 -11 10 -2 0
-4 -4 -4 -10z"/>
<path d="M708 353 c6 -2 12 -20 12 -39 0 -19 5 -34 10 -34 6 0 10 15 10 34 0
19 6 37 13 39 6 3 -4 5 -23 5 -19 0 -29 -2 -22 -5z"/>
<path d="M771 318 c1 -37 2 -39 9 -18 5 17 8 19 9 8 1 -10 6 -18 12 -18 7 0 8
7 4 18 -4 9 -10 25 -12 35 -10 32 -23 17 -22 -25z"/>
<path d="M820 351 c0 -5 -3 -17 -7 -27 -4 -11 -3 -15 5 -10 6 3 12 -3 15 -16
2 -13 5 -4 6 20 0 23 -3 42 -9 42 -5 0 -10 -4 -10 -9z"/>
<path d="M1040 351 c0 -5 -9 -11 -21 -14 -29 -8 -22 -51 9 -55 20 -3 22 1 22
37 0 23 -2 41 -5 41 -3 0 -5 -4 -5 -9z m-5 -51 c-5 -8 -11 -8 -17 -2 -6 6 -7
16 -3 22 5 8 11 8 17 2 6 -6 7 -16 3 -22z"/>
<path d="M1099 338 c-6 -13 -8 -20 -4 -16 4 4 13 1 19 -8 10 -13 12 -13 12 5
0 11 -4 17 -8 15 -4 -3 -8 0 -8 5 0 15 33 14 50 -1 12 -11 12 -10 1 5 -19 24
-48 21 -62 -5z"/>
<path d="M1228 353 c6 -2 12 -17 12 -33 0 -16 -6 -31 -12 -33 -7 -3 -4 -6 7
-6 18 -1 20 4 17 39 -3 29 -8 40 -21 39 -10 0 -11 -2 -3 -6z"/>
<path d="M1287 353 c-13 -12 -7 -43 8 -43 21 0 19 -18 -2 -23 -15 -4 -15 -5
-2 -6 25 -2 42 25 35 54 -6 24 -25 33 -39 18z m23 -18 c0 -8 -4 -15 -10 -15
-5 0 -10 7 -10 15 0 8 5 15 10 15 6 0 10 -7 10 -15z"/>
<path d="M1347 328 c-5 -37 4 -54 26 -45 21 8 17 71 -5 75 -11 2 -17 -7 -21
-30z m33 18 c0 -3 -4 -8 -10 -11 -5 -3 -10 -1 -10 4 0 6 5 11 10 11 6 0 10 -2
10 -4z m0 -46 c0 -5 -7 -10 -15 -10 -8 0 -15 5 -15 10 0 6 7 10 15 10 8 0 15
-4 15 -10z"/>
<path d="M1423 354 c19 -6 23 -24 5 -24 -9 0 -9 -3 0 -12 15 -15 15 -25 0 -31
-8 -2 -7 -3 2 -3 10 1 15 12 15 36 0 27 -4 35 -20 37 -16 1 -16 1 -2 -3z"/>
<path d="M1543 353 c21 -6 22 -17 2 -33 -22 -19 -18 -40 8 -39 18 1 18 2 4 6
-17 4 -18 6 -2 24 20 22 13 49 -12 48 -17 -1 -17 -2 0 -6z"/>
<path d="M1594 346 c-10 -25 0 -61 18 -64 19 -4 32 29 23 58 -7 23 -33 27 -41
6z m30 -11 c6 -18 -2 -45 -15 -45 -5 0 -9 14 -9 30 0 32 14 40 24 15z"/>
<path d="M1665 320 c0 -29 4 -40 15 -40 12 0 15 9 12 40 -2 22 -9 40 -16 40
-6 0 -11 -17 -11 -40z"/>
<path d="M1733 354 c19 -6 23 -24 5 -24 -9 0 -9 -3 0 -12 15 -15 15 -25 0 -31
-8 -2 -7 -3 2 -3 10 1 15 12 15 36 0 27 -4 35 -20 37 -16 1 -16 1 -2 -3z"/>
<path d="M1817 320 c-8 -22 -12 -40 -7 -40 5 0 10 6 13 13 3 9 9 9 26 -1 11
-7 21 -10 21 -7 0 10 -29 75 -33 75 -2 0 -11 -18 -20 -40z"/>
<path d="M2013 320 c0 -25 2 -35 4 -22 2 12 2 32 0 45 -2 12 -4 2 -4 -23z"/>
<path d="M2123 320 c0 -25 2 -35 4 -22 2 12 2 32 0 45 -2 12 -4 2 -4 -23z"/>
<path d="M899 331 c11 -7 10 -11 -4 -19 -21 -11 -12 -32 14 -32 14 0 17 6 13
30 -3 19 -10 30 -21 30 -13 0 -13 -2 -2 -9z m11 -31 c0 -5 -5 -10 -11 -10 -5
0 -7 5 -4 10 3 6 8 10 11 10 2 0 4 -4 4 -10z"/>
<path d="M941 308 c1 -21 3 -26 6 -13 8 34 23 41 23 12 0 -15 5 -27 11 -27 6
0 9 12 7 28 -2 19 -9 28 -25 30 -20 3 -23 -1 -22 -30z"/>
<path d="M1880 298 c0 -24 4 -38 8 -32 4 6 15 13 25 17 26 10 18 51 -10 55
-21 3 -23 -1 -23 -40z m40 6 c0 -8 -7 -14 -15 -14 -15 0 -21 21 -9 33 10 9 24
-2 24 -19z"/>
<path d="M1947 334 c-9 -9 -9 -58 -1 -67 11 -10 46 31 42 49 -3 19 -29 30 -41
18z m33 -24 c0 -11 -4 -20 -10 -20 -5 0 -10 9 -10 20 0 11 5 20 10 20 6 0 10
-9 10 -20z"/>
<path d="M2034 325 c-9 -22 3 -45 23 -45 15 0 15 2 -3 15 -17 13 -17 14 -1 15
21 0 23 30 2 30 -9 0 -18 -7 -21 -15z"/>
<path d="M2151 308 c1 -21 3 -26 6 -13 8 34 23 41 23 12 0 -15 5 -27 11 -27 6
0 9 12 7 28 -2 19 -9 28 -25 30 -20 3 -23 -1 -22 -30z"/>
<path d="M2214 325 c-9 -22 3 -45 23 -45 15 0 15 2 -3 15 -19 15 -19 15 0 30
18 13 18 15 3 15 -10 0 -20 -7 -23 -15z"/>
<path d="M1156 304 c-4 -11 -14 -15 -31 -12 -13 3 -22 1 -19 -3 8 -14 40 -10
54 6 7 9 11 18 8 21 -3 3 -8 -3 -12 -12z"/>
<path d="M1478 313 c6 -2 18 -2 25 0 6 3 1 5 -13 5 -14 0 -19 -2 -12 -5z"/>
<path d="M550 194 c-7 -19 -9 -38 -6 -41 3 -4 6 -1 6 5 0 7 9 12 20 12 11 0
20 -5 20 -12 0 -6 3 -9 6 -5 7 7 -17 77 -27 77 -4 0 -13 -16 -19 -36z m30 -4
c0 -5 -4 -10 -10 -10 -5 0 -10 5 -10 10 0 6 5 10 10 10 6 0 10 -4 10 -10z"/>
<path d="M610 190 c0 -22 5 -40 10 -40 6 0 10 18 10 40 0 22 -4 40 -10 40 -5
0 -10 -18 -10 -40z"/>
<path d="M643 190 c0 -25 2 -35 4 -22 2 12 2 32 0 45 -2 12 -4 2 -4 -23z"/>
<path d="M701 188 c1 -24 3 -35 6 -25 6 21 12 22 28 1 10 -14 12 -11 11 22 -2
32 -6 40 -24 42 -20 3 -22 -1 -21 -40z m29 17 c0 -8 -4 -15 -10 -15 -5 0 -10
7 -10 15 0 8 5 15 10 15 6 0 10 -7 10 -15z"/>
<path d="M862 190 c0 -25 2 -38 5 -30 14 43 16 44 23 15 l8 -30 1 33 c1 21 -4
32 -13 32 -8 0 -17 6 -19 13 -3 6 -5 -8 -5 -33z"/>
<path d="M1037 224 c-11 -11 -8 -74 3 -74 6 0 10 8 10 18 1 16 1 16 11 0 5
-10 15 -18 21 -18 7 0 7 4 -1 14 -6 7 -10 24 -9 37 3 23 -20 38 -35 23z m28
-13 c3 -5 1 -12 -5 -16 -5 -3 -10 1 -10 9 0 18 6 21 15 7z"/>
<path d="M1440 221 c0 -5 -9 -11 -21 -14 -29 -8 -22 -51 9 -55 20 -3 22 1 22
37 0 23 -2 41 -5 41 -3 0 -5 -4 -5 -9z m-5 -51 c-5 -8 -11 -8 -17 -2 -6 6 -7
16 -3 22 5 8 11 8 17 2 6 -6 7 -16 3 -22z"/>
<path d="M1567 217 c-3 -8 -2 -29 3 -48 7 -29 8 -30 10 -9 1 14 3 35 4 48 3
24 -9 30 -17 9z"/>
<path d="M1605 220 c3 -5 0 -10 -7 -10 -9 0 -9 -3 2 -10 9 -6 10 -10 3 -10 -6
0 -11 -8 -10 -18 1 -12 9 -18 26 -19 15 0 18 1 9 4 -22 5 -24 23 -3 23 19 0
19 17 1 36 -17 16 -30 19 -21 4z"/>
<path d="M1667 193 c-7 -43 -1 -57 9 -19 8 34 22 33 27 -1 l4 -28 2 28 c0 15
5 27 10 27 5 0 12 -12 14 -27 3 -20 4 -15 6 15 1 41 1 42 -33 42 -31 0 -34 -3
-39 -37z"/>
<path d="M1760 221 c0 -13 27 -21 45 -15 8 4 15 1 15 -5 0 -6 -13 -11 -30 -11
-23 0 -30 -4 -30 -20 0 -11 7 -20 15 -20 8 0 15 7 15 15 0 21 28 19 33 -2 4
-17 5 -17 6 0 0 9 7 17 14 17 8 0 7 4 -3 10 -12 8 -13 12 -2 19 10 6 7 10 -12
13 -14 3 -27 0 -30 -6 -3 -7 -5 -7 -5 2 -1 14 -31 17 -31 3z"/>
<path d="M1860 220 c0 -6 12 -10 28 -11 l27 -1 -28 -10 c-15 -5 -24 -14 -21
-19 3 -6 12 -5 22 3 15 12 16 11 3 -4 -7 -10 -17 -15 -22 -12 -5 3 -9 0 -9 -7
0 -6 8 -9 20 -6 11 3 20 1 20 -3 0 -4 9 -6 20 -3 25 7 26 30 3 36 -13 3 -11 5
7 7 23 1 23 2 5 10 -11 5 -14 9 -7 9 6 1 12 5 12 9 0 5 -18 9 -40 10 -22 1
-40 -3 -40 -8z"/>
<path d="M1970 216 c0 -8 -3 -21 -6 -30 -4 -11 0 -16 12 -16 17 0 16 -1 -2
-16 -19 -15 -18 -15 2 -5 11 5 32 8 45 5 18 -4 20 -3 10 4 -11 8 -10 11 5 15
17 4 16 5 -3 6 -16 1 -20 6 -16 21 3 11 9 20 14 20 5 0 6 -8 3 -17 -5 -15 -4
-16 5 -3 18 25 13 30 -29 30 -28 0 -40 -4 -40 -14z m40 -6 c0 -5 -2 -10 -4
-10 -3 0 -8 5 -11 10 -3 6 -1 10 4 10 6 0 11 -4 11 -10z m-13 -26 c-3 -3 -12
-4 -19 -1 -8 3 -5 6 6 6 11 1 17 -2 13 -5z"/>
<path d="M2069 229 c-8 -42 -7 -79 1 -79 5 0 10 5 10 11 0 5 5 7 10 4 6 -3 10
1 10 10 0 10 5 13 12 9 8 -5 9 -2 5 9 -4 11 -1 17 8 17 7 0 16 -8 18 -17 4
-17 5 -17 6 -1 1 21 -35 43 -44 28 -5 -8 -11 -7 -21 1 -8 6 -14 10 -15 8z"/>
<path d="M2183 203 c-21 -44 -17 -53 25 -51 36 1 36 1 5 5 -38 5 -43 25 -10
39 12 6 17 9 10 8 -6 -2 -13 4 -15 11 -2 9 -8 5 -15 -12z"/>
<path d="M2267 217 c-3 -8 -2 -29 2 -47 6 -31 7 -32 21 -14 9 10 10 15 3 10
-7 -4 -13 -2 -13 3 0 20 20 11 30 -11 6 -17 9 -18 9 -6 1 9 9 22 19 27 16 10
15 10 -3 11 -11 1 -14 4 -7 7 6 2 12 11 12 19 0 18 -66 19 -73 1z m38 -19 c6
-4 2 -8 -7 -8 -10 0 -18 7 -18 17 0 9 3 12 8 7 4 -5 12 -12 17 -16z m22 16
c-3 -3 -12 -4 -19 -1 -8 3 -5 6 6 6 11 1 17 -2 13 -5z"/>
<path d="M2360 219 c0 -7 11 -8 30 -4 29 6 30 5 29 -27 -1 -31 -1 -31 -9 -8
l-8 25 -2 -25 c-2 -18 -4 -20 -7 -7 -7 25 -33 21 -33 -6 0 -20 4 -22 46 -18
26 2 42 6 36 10 -14 8 -12 53 3 63 5 4 -11 8 -37 8 -28 0 -48 -5 -48 -11z"/>
<path d="M918 215 c-6 -7 3 -65 11 -65 7 0 7 58 -1 65 -2 3 -7 3 -10 0z"/>
<path d="M772 180 c0 -19 2 -27 5 -17 2 9 2 25 0 35 -3 9 -5 1 -5 -18z"/>
<path d="M797 203 c-15 -15 -6 -45 15 -51 21 -5 21 -6 2 -14 -18 -8 -18 -8 1
-5 29 3 36 77 7 77 -10 0 -22 -3 -25 -7z m28 -33 c-5 -8 -11 -8 -17 -2 -6 6
-7 16 -3 22 5 8 11 8 17 2 6 -6 7 -16 3 -22z"/>
<path d="M954 199 c-4 -7 1 -16 12 -22 17 -10 17 -11 -1 -18 -16 -6 -17 -8 -3
-8 23 -1 34 19 17 30 -12 8 -12 11 1 19 13 8 13 10 -2 10 -9 0 -20 -5 -24 -11z"/>
<path d="M1097 195 c-10 -24 3 -45 27 -44 16 1 17 2 4 6 -22 6 -24 23 -2 23
20 0 13 24 -8 28 -9 2 -18 -4 -21 -13z"/>
<path d="M1154 199 c-3 -6 0 -15 7 -20 12 -8 12 -11 -1 -19 -13 -8 -13 -10 2
-10 9 0 20 5 23 10 5 8 11 7 21 0 7 -7 19 -10 26 -7 8 4 7 6 -4 6 -22 1 -24
21 -3 21 18 0 20 16 3 26 -6 4 -17 -1 -24 -11 -8 -11 -19 -15 -31 -11 -15 6
-15 8 -3 16 9 6 10 10 3 10 -6 0 -15 -5 -19 -11z"/>
<path d="M1261 178 c2 -31 2 -31 6 -5 2 15 9 27 14 27 5 0 14 -12 20 -27 l11
-28 15 28 c8 16 12 31 9 34 -3 3 -10 -5 -14 -18 l-9 -24 -7 23 c-4 13 -15 22
-27 22 -15 0 -19 -7 -18 -32z"/>
<path d="M1351 192 c-12 -23 9 -48 31 -39 8 4 7 6 -4 6 -22 1 -24 21 -2 21 9
0 14 5 12 12 -7 20 -26 20 -37 0z"/>
<path d="M2126 153 c-6 -14 -5 -15 5 -6 7 7 10 15 7 18 -3 3 -9 -2 -12 -12z"/>
</g>
</svg>
