<?xml version="1.0" standalone="no"?>
<!DOCTYPE svg PUBLIC "-//W3C//DTD SVG 20010904//EN"
 "http://www.w3.org/TR/2001/REC-SVG-20010904/DTD/svg10.dtd">
<svg version="1.0" xmlns="http://www.w3.org/2000/svg"
 width="288.000000pt" height="208.000000pt" viewBox="0 0 288.000000 208.000000"
 preserveAspectRatio="xMidYMid meet">
<metadata>
Created by potrace 1.11, written by Peter Selinger 2001-2013
</metadata>
<g transform="translate(0.000000,208.000000) scale(0.100000,-0.100000)"
fill="#000000" stroke="none">
<path d="M203 1985 c-12 -14 -18 -27 -13 -30 5 -3 12 0 15 5 5 8 14 5 26 -6
20 -18 19 -18 -13 -36 -28 -14 -30 -17 -11 -18 31 0 83 47 83 76 0 17 -6 24
-19 24 -11 0 -25 2 -33 5 -7 3 -23 -6 -35 -20z m67 -10 c0 -16 -9 -19 -34 -9
-20 8 -11 24 15 24 10 0 19 -7 19 -15z"/>
<path d="M483 2004 c10 -10 77 -22 77 -14 0 4 -7 11 -16 14 -20 8 -69 8 -61 0z"/>
<path d="M657 1996 c-3 -8 -18 -16 -34 -19 l-28 -4 28 -2 c34 -1 37 -33 5 -55
-18 -13 -19 -16 -6 -16 22 0 48 27 48 51 0 14 7 19 28 20 20 1 22 2 7 6 -11 3
-25 11 -31 19 -10 13 -12 13 -17 0z"/>
<path d="M768 2004 c-5 -4 -8 -22 -8 -40 0 -18 -4 -36 -10 -39 -12 -8 -13 -25
-1 -25 14 0 33 55 29 85 -2 15 -6 23 -10 19z"/>
<path d="M800 1955 c0 -30 5 -55 10 -55 14 0 50 37 50 52 0 6 -9 3 -20 -7 -20
-18 -20 -17 -20 23 0 23 -4 42 -10 42 -5 0 -10 -25 -10 -55z"/>
<path d="M891 1953 c1 -65 5 -61 12 10 2 26 1 47 -4 47 -5 0 -9 -26 -8 -57z"/>
<path d="M1171 1962 c-1 -39 3 -54 14 -58 15 -6 50 14 40 24 -2 3 -11 -1 -19
-7 -16 -14 -21 -3 -29 64 -2 17 -5 7 -6 -23z"/>
<path d="M1350 1999 c-39 -4 -45 -6 -20 -7 26 -2 31 -5 22 -14 -17 -17 -15
-65 4 -72 9 -3 25 -6 37 -5 18 0 16 3 -10 15 -18 8 -33 20 -33 27 0 18 30 44
55 49 41 7 -2 13 -55 7z"/>
<path d="M938 1993 c12 -2 30 -2 40 0 9 3 -1 5 -23 4 -22 0 -30 -2 -17 -4z"/>
<path d="M1025 1990 c-4 -6 10 -7 39 -4 38 6 47 4 52 -11 10 -25 -8 -49 -40
-53 -14 -2 -26 -8 -26 -13 0 -13 15 -11 55 5 37 16 47 50 23 74 -14 14 -94 16
-103 2z"/>
<path d="M1245 1985 c4 -11 10 -30 12 -42 3 -13 10 -23 15 -23 14 0 0 52 -19
70 -14 13 -15 13 -8 -5z"/>
<path d="M495 1960 c11 -5 31 -9 45 -9 20 -1 22 1 10 9 -8 5 -28 9 -45 9 -26
0 -27 -2 -10 -9z"/>
<path d="M353 1953 c15 -2 39 -2 55 0 15 2 2 4 -28 4 -30 0 -43 -2 -27 -4z"/>
<path d="M920 1931 c0 -22 50 -38 72 -24 9 5 1 10 -22 13 -20 3 -34 11 -32 18
1 7 -2 12 -8 12 -5 0 -10 -9 -10 -19z"/>
<path d="M480 1922 c49 -17 106 -24 94 -13 -6 7 -35 14 -65 16 -37 4 -46 2
-29 -3z"/>
<path d="M195 1700 c-16 -4 -25 -8 -18 -9 15 -1 14 -61 -1 -80 -9 -12 -8 -14
4 -9 8 3 26 8 40 12 l25 7 -25 -16 -25 -16 28 6 c18 4 27 1 27 -7 0 -9 3 -9 9
1 8 13 12 13 26 1 11 -9 19 -10 23 -3 11 16 53 35 60 28 4 -4 -2 -13 -12 -21
-13 -9 -15 -14 -6 -14 7 0 22 7 32 17 17 15 18 15 18 -1 0 -21 41 -19 48 3 3
9 -2 11 -19 7 -22 -7 -23 -6 -6 7 24 20 21 84 -5 90 -24 7 -59 -3 -52 -14 3
-5 0 -9 -5 -9 -6 0 -11 7 -11 15 0 8 -4 15 -10 15 -5 0 -10 -9 -10 -20 0 -11
-7 -20 -15 -20 -8 0 -15 9 -15 20 0 17 -6 20 -37 19 -21 -1 -51 -5 -68 -9z
m25 -20 c0 -5 -4 -10 -10 -10 -5 0 -10 5 -10 10 0 6 5 10 10 10 6 0 10 -4 10
-10z m110 -38 c0 -18 -18 -42 -30 -42 -4 0 -5 14 -2 30 5 32 32 42 32 12z m27
-4 c-3 -8 -6 -5 -6 6 -1 11 2 17 5 13 3 -3 4 -12 1 -19z m-137 2 c0 -5 -4 -10
-10 -10 -5 0 -10 5 -10 10 0 6 5 10 10 10 6 0 10 -4 10 -10z m187 4 c-3 -3
-12 -4 -19 -1 -8 3 -5 6 6 6 11 1 17 -2 13 -5z m-134 -11 c-7 -2 -19 -2 -25 0
-7 3 -2 5 12 5 14 0 19 -2 13 -5z"/>
<path d="M460 1675 c0 -32 3 -35 29 -35 18 0 31 -6 35 -16 9 -24 -3 -32 -15
-11 -16 27 -49 22 -49 -8 0 -22 3 -24 38 -20 20 3 42 6 47 6 6 1 19 -2 30 -6
19 -6 19 -6 2 8 -15 13 -16 19 -7 36 10 19 8 21 -19 21 -24 0 -28 3 -24 20 6
23 23 27 23 5 0 -8 9 -15 20 -15 11 0 20 5 20 11 0 6 -7 9 -15 5 -10 -4 -15 1
-15 14 0 13 -7 20 -20 20 -13 0 -20 -7 -20 -19 0 -11 -5 -23 -12 -27 -6 -4 -8
-3 -5 4 11 17 -4 42 -24 42 -15 0 -19 -7 -19 -35z m90 -45 c0 -5 -2 -10 -4
-10 -3 0 -8 5 -11 10 -3 6 -1 10 4 10 6 0 11 -4 11 -10z m-60 -20 c0 -5 -5
-10 -11 -10 -5 0 -7 5 -4 10 3 6 8 10 11 10 2 0 4 -4 4 -10z"/>
<path d="M650 1700 c0 -5 -11 -10 -25 -10 -16 0 -25 -6 -25 -15 0 -9 9 -15 25
-15 20 0 25 -5 25 -26 0 -14 -4 -23 -10 -19 -5 3 -7 12 -3 20 3 8 1 15 -5 15
-5 0 -12 -8 -15 -17 -2 -10 -8 -27 -12 -38 -6 -15 -5 -17 4 -9 7 6 35 10 64 8
29 -1 40 0 25 2 -34 6 -37 31 -5 37 l22 4 -22 2 c-31 2 -29 21 2 21 16 0 25 6
25 15 0 9 -9 15 -25 15 -14 0 -25 5 -25 10 0 6 -4 10 -10 10 -5 0 -10 -4 -10
-10z m38 -27 c-16 -2 -40 -2 -55 0 -16 2 -3 4 27 4 30 0 43 -2 28 -4z"/>
<path d="M2547 1693 c-14 -13 -7 -43 11 -43 16 -1 16 -1 0 -14 -24 -18 -23
-46 2 -46 11 0 20 7 20 15 0 8 5 15 10 15 6 0 10 -7 10 -15 0 -8 9 -15 20 -15
25 0 26 28 3 46 -17 13 -17 13 0 14 10 0 17 8 17 19 0 29 -21 37 -37 15 -13
-18 -15 -18 -24 -1 -10 18 -21 21 -32 10z m23 -77 c0 -3 -4 -8 -10 -11 -5 -3
-10 -1 -10 4 0 6 5 11 10 11 6 0 10 -2 10 -4z m60 -6 c0 -5 -2 -10 -4 -10 -3
0 -8 5 -11 10 -3 6 -1 10 4 10 6 0 11 -4 11 -10z"/>
<path d="M740 1600 c0 -5 5 -10 10 -10 6 0 10 5 10 10 0 6 -4 10 -10 10 -5 0
-10 -4 -10 -10z"/>
<path d="M790 1600 c0 -5 5 -10 10 -10 6 0 10 5 10 10 0 6 -4 10 -10 10 -5 0
-10 -4 -10 -10z"/>
<path d="M830 1600 c0 -5 5 -10 10 -10 6 0 10 5 10 10 0 6 -4 10 -10 10 -5 0
-10 -4 -10 -10z"/>
<path d="M2673 1590 c1 -11 5 -20 9 -20 4 0 8 9 8 20 0 11 -4 20 -9 20 -6 0
-9 -9 -8 -20z"/>
<path d="M553 1523 c-7 -2 -9 -11 -6 -19 6 -17 -13 -19 -20 -1 -4 9 -8 9 -14
1 -4 -7 -19 -14 -33 -17 -25 -4 -25 -4 3 -6 25 -1 27 -4 27 -41 0 -22 5 -40
10 -40 6 0 10 18 10 40 0 36 2 40 26 40 14 0 23 4 20 9 -4 5 -1 11 5 13 8 3 7
7 -2 15 -8 5 -19 8 -26 6z"/>
<path d="M824 1506 c-8 -22 3 -33 18 -18 9 9 9 15 0 24 -9 9 -13 7 -18 -6z"/>
<path d="M1071 1508 c-1 -12 -10 -18 -28 -19 -24 -2 -25 -2 -5 -6 29 -6 29
-36 0 -63 -12 -11 -19 -23 -15 -26 10 -10 57 44 57 66 0 13 7 20 20 20 30 0
28 -58 -2 -69 -19 -7 -19 -8 -4 -14 28 -11 36 1 36 49 0 40 -2 44 -24 44 -15
0 -26 7 -29 18 -4 16 -5 16 -6 0z"/>
<path d="M2190 1513 c0 -7 -10 -13 -22 -13 -19 0 -20 -2 -8 -10 13 -8 12 -11
-5 -25 -19 -16 -19 -16 10 -10 28 6 29 5 11 -8 -31 -23 -14 -47 34 -47 22 0
40 4 40 9 0 5 -9 7 -20 4 -26 -7 -53 4 -44 18 4 8 9 7 15 -2 7 -11 9 -10 9 4
0 10 8 17 19 17 11 0 23 5 26 11 4 6 -3 9 -21 7 -15 -2 -29 3 -31 10 -3 7 6
12 24 13 27 2 27 2 3 6 -14 3 -28 10 -32 17 -6 8 -8 8 -8 -1z"/>
<path d="M2287 1485 c-9 -19 -12 -35 -7 -35 6 0 10 -13 10 -30 0 -34 6 -36 35
-14 18 13 20 13 27 -3 6 -17 7 -17 7 0 1 19 16 23 26 7 3 -5 11 -10 17 -10 6
0 3 8 -6 19 -16 17 -16 19 1 26 16 7 15 9 -7 15 -16 5 -19 8 -7 9 10 1 17 9
17 21 0 16 -7 20 -34 20 -19 0 -41 2 -48 5 -9 4 -20 -7 -31 -30z m51 -18 c10
-3 5 -5 -10 -6 -31 -1 -31 -1 -21 26 7 16 8 16 11 1 2 -9 11 -19 20 -21z m42
23 c0 -5 -11 -10 -25 -10 -14 0 -25 5 -25 10 0 6 11 10 25 10 14 0 25 -4 25
-10z m-52 -61 c-19 -13 -28 -11 -28 5 0 9 7 12 21 9 16 -4 17 -8 7 -14z"/>
<path d="M2420 1495 c0 -17 6 -25 18 -26 15 0 14 -2 -3 -10 -17 -8 -16 -9 8
-6 17 3 27 0 27 -8 0 -8 -9 -10 -25 -7 -21 4 -25 1 -25 -19 0 -23 3 -24 66
-25 44 -1 61 2 50 8 -12 7 -14 14 -6 28 14 26 13 60 -2 61 -7 0 -4 4 7 9 14 6
15 9 5 10 -119 11 -120 11 -120 -15z m30 -75 c0 -5 -4 -10 -10 -10 -5 0 -10 5
-10 10 0 6 5 10 10 10 6 0 10 -4 10 -10z m30 -4 c0 -3 -4 -8 -10 -11 -5 -3
-10 -1 -10 4 0 6 5 11 10 11 6 0 10 -2 10 -4z"/>
<path d="M220 1500 c0 -5 -6 -10 -14 -10 -8 0 -18 -5 -22 -11 -5 -9 1 -10 20
-5 19 5 26 3 26 -8 0 -8 -12 -16 -27 -19 l-28 -4 28 -2 c20 -1 31 -7 34 -21 3
-11 10 -20 15 -20 5 0 7 9 3 19 -4 14 1 22 22 29 l28 10 -27 1 c-32 1 -39 21
-8 21 11 0 20 5 20 10 0 6 -11 8 -25 4 -15 -4 -25 -2 -25 5 0 6 -4 11 -10 11
-5 0 -10 -4 -10 -10z"/>
<path d="M760 1455 c0 -30 5 -55 10 -55 6 0 10 14 10 31 0 32 5 34 53 14 10
-4 17 -3 17 4 0 6 -14 14 -31 18 -19 3 -34 14 -36 25 -10 37 -23 16 -23 -37z"/>
<path d="M913 1503 c25 -6 21 -37 -9 -73 -15 -17 -24 -33 -21 -36 2 -3 16 9
31 26 l26 32 26 -31 c14 -17 30 -29 34 -26 5 3 -2 16 -16 30 -13 13 -27 38
-30 55 -5 25 -11 30 -33 29 -17 -1 -20 -3 -8 -6z"/>
<path d="M1179 1489 c-27 -27 -23 -73 8 -77 18 -3 24 4 34 38 13 44 32 48 37
8 2 -18 -4 -31 -20 -42 -17 -12 -19 -16 -6 -16 46 0 64 68 26 94 -30 22 -54
20 -79 -5z m31 -17 c0 -10 -7 -27 -15 -38 -14 -19 -14 -19 -15 3 0 28 10 53
21 53 5 0 9 -8 9 -18z"/>
<path d="M1330 1491 c0 -11 -8 -22 -17 -24 -16 -4 -16 -5 -1 -6 10 -1 18 -11
20 -28 3 -25 7 -28 48 -31 25 -2 41 0 37 4 -4 5 -20 8 -35 9 -22 0 -28 5 -30
26 -2 20 2 28 17 32 24 6 27 -3 9 -22 -11 -11 -10 -13 1 -9 8 2 21 15 30 28
l16 23 -38 -6 c-28 -4 -37 -2 -37 9 0 8 -4 14 -10 14 -5 0 -10 -9 -10 -19z"/>
<path d="M1480 1500 c0 -5 -7 -10 -15 -10 -8 0 -15 -5 -15 -11 0 -6 9 -8 20
-4 14 4 20 2 20 -9 0 -8 -12 -16 -27 -19 l-28 -4 28 -2 c20 -1 31 -7 34 -21 3
-11 10 -20 15 -20 5 0 7 9 3 19 -4 14 1 22 22 29 l28 10 -27 1 c-32 1 -39 21
-8 21 11 0 20 4 20 9 0 4 -11 6 -25 3 -15 -2 -25 0 -25 7 0 6 -4 11 -10 11 -5
0 -10 -4 -10 -10z"/>
<path d="M1743 1475 c0 -22 2 -30 4 -17 2 12 2 30 0 40 -3 9 -5 -1 -4 -23z"/>
<path d="M1812 1488 c-3 -43 -13 -59 -46 -74 -30 -13 -30 -13 -5 -14 44 0 61
20 56 70 -2 25 -4 33 -5 18z"/>
<path d="M1893 1503 c15 -2 39 -2 55 0 15 2 2 4 -28 4 -30 0 -43 -2 -27 -4z"/>
<path d="M2075 1481 c-6 -6 -23 -17 -40 -25 -27 -14 -28 -16 -7 -16 15 0 22
-6 22 -20 0 -11 5 -20 10 -20 6 0 10 12 10 27 0 14 7 35 17 45 16 18 5 26 -12
9z"/>
<path d="M1623 1473 c24 -4 28 -9 25 -31 -2 -21 -10 -28 -33 -33 -22 -5 -16
-7 25 -7 30 0 47 2 37 5 -14 4 -16 11 -11 39 l6 34 -38 -1 c-31 -2 -34 -3 -11
-6z"/>
<path d="M1865 1470 c-4 -6 5 -10 19 -10 32 0 34 -23 4 -44 -12 -9 -17 -16
-10 -16 25 0 52 21 52 40 0 15 7 20 25 20 14 0 25 5 25 10 0 6 -24 10 -54 10
-30 0 -58 -4 -61 -10z"/>
<path d="M353 1453 c15 -2 39 -2 55 0 15 2 2 4 -28 4 -30 0 -43 -2 -27 -4z"/>
<path d="M472 1440 c-14 -23 -15 -30 -4 -30 5 0 14 11 20 25 14 30 2 34 -16 5z"/>
<path d="M552 1435 c6 -14 15 -25 20 -25 11 0 10 7 -2 31 -16 28 -32 23 -18
-6z"/>
<path d="M633 1453 c15 -2 39 -2 55 0 15 2 2 4 -28 4 -30 0 -43 -2 -27 -4z"/>
<path d="M553 1196 c3 -8 -2 -16 -11 -19 -9 -3 -25 -8 -34 -12 -14 -5 -18 -2
-18 14 0 12 -5 21 -11 21 -6 0 -9 -21 -7 -52 l3 -53 48 -3 c26 -2 47 1 47 6 0
5 -17 9 -37 8 -32 -1 -38 2 -41 22 -2 15 2 22 14 22 21 0 84 38 84 51 0 5 -9
9 -21 9 -14 0 -19 -5 -16 -14z"/>
<path d="M211 1193 c-1 -7 -8 -13 -16 -13 -8 0 -15 -4 -15 -10 0 -5 6 -10 14
-10 8 0 17 -8 19 -17 4 -17 5 -17 6 0 1 10 9 17 21 17 36 0 22 -42 -20 -59
l-25 -10 26 0 c31 -1 49 16 49 46 0 14 6 23 15 23 8 0 15 5 15 10 0 6 -6 10
-14 10 -8 0 -17 6 -19 13 -4 10 -6 10 -6 0 -1 -7 -10 -13 -20 -13 -11 0 -22 6
-24 13 -4 10 -6 10 -6 0z"/>
<path d="M610 1191 c0 -6 17 -11 38 -13 l37 -3 -43 -43 c-46 -45 -45 -54 3
-22 29 19 29 19 52 -2 13 -12 23 -17 23 -11 0 5 -9 18 -20 28 -15 13 -17 22
-10 36 18 32 11 39 -35 39 -25 0 -45 -4 -45 -9z"/>
<path d="M2680 1140 l0 -51 40 22 c22 13 40 26 40 29 0 3 -18 16 -40 29 l-40
22 0 -51z"/>
<path d="M353 1143 c15 -2 39 -2 55 0 15 2 2 4 -28 4 -30 0 -43 -2 -27 -4z"/>
<path d="M930 893 c0 -7 -10 -13 -22 -13 -19 0 -20 -2 -8 -10 13 -9 13 -12 -2
-21 -25 -14 -23 -33 1 -19 28 14 38 12 16 -4 -30 -22 -12 -46 35 -46 22 0 40
4 40 9 0 5 -9 7 -20 4 -26 -7 -53 4 -44 18 4 8 9 7 15 -2 7 -11 9 -10 9 4 0
10 8 17 19 17 11 0 23 5 26 11 4 6 -3 9 -21 7 -15 -2 -29 3 -31 10 -3 7 6 12
24 13 27 2 27 2 3 6 -14 3 -28 10 -32 17 -6 8 -8 8 -8 -1z"/>
<path d="M1020 833 c0 -34 4 -63 10 -63 5 0 7 7 4 15 -4 8 -1 15 5 15 6 0 11
-8 12 -17 0 -12 2 -13 6 -5 4 10 8 10 19 2 17 -15 77 -3 67 13 -4 6 -6 31 -6
57 l1 45 -59 1 -59 1 0 -64z m47 15 c2 -17 0 -19 -7 -8 -5 8 -6 18 -4 22 8 12
10 10 11 -14z m46 -5 c-7 -2 -19 -2 -25 0 -7 3 -2 5 12 5 14 0 19 -2 13 -5z
m-68 -13 c3 -5 1 -10 -4 -10 -6 0 -11 5 -11 10 0 6 2 10 4 10 3 0 8 -4 11 -10z
m60 -40 c3 -5 1 -10 -4 -10 -6 0 -11 5 -11 10 0 6 2 10 4 10 3 0 8 -4 11 -10z"/>
<path d="M203 865 c-12 -14 -18 -27 -13 -30 5 -3 12 0 15 5 5 8 14 5 26 -6 20
-18 19 -18 -13 -36 -28 -14 -30 -17 -11 -18 31 0 83 47 83 76 0 17 -6 24 -19
24 -11 0 -25 2 -33 5 -7 3 -23 -6 -35 -20z m67 -10 c0 -16 -9 -19 -34 -9 -20
8 -11 24 15 24 10 0 19 -7 19 -15z"/>
<path d="M483 884 c10 -10 77 -22 77 -14 0 4 -7 11 -16 14 -20 8 -69 8 -61 0z"/>
<path d="M657 876 c-3 -8 -18 -16 -34 -19 l-28 -4 28 -2 c34 -1 37 -33 5 -55
-18 -13 -19 -16 -6 -16 22 0 48 27 48 51 0 14 7 19 28 20 20 1 22 2 7 6 -11 3
-25 11 -31 19 -10 13 -12 13 -17 0z"/>
<path d="M768 884 c-5 -4 -8 -22 -8 -40 0 -18 -4 -36 -10 -39 -12 -8 -13 -25
-1 -25 14 0 33 55 29 85 -2 15 -6 23 -10 19z"/>
<path d="M800 835 c0 -30 5 -55 10 -55 14 0 50 37 50 52 0 6 -9 3 -20 -7 -20
-18 -20 -17 -20 23 0 23 -4 42 -10 42 -5 0 -10 -25 -10 -55z"/>
<path d="M1195 879 l-40 -6 38 -2 c20 0 37 -6 37 -12 0 -5 -4 -8 -9 -5 -16 10
-41 -5 -41 -24 0 -11 9 -20 23 -23 22 -4 22 -4 -3 -15 l-25 -11 26 0 c34 -1
53 22 45 54 -5 20 -2 27 16 34 l22 8 -25 4 c-13 2 -42 1 -64 -2z m35 -49 c0
-5 -7 -10 -15 -10 -8 0 -15 5 -15 10 0 6 7 10 15 10 8 0 15 -4 15 -10z"/>
<path d="M2547 883 c-14 -13 -7 -43 11 -43 16 -1 16 -1 0 -14 -24 -18 -23 -46
2 -46 11 0 20 7 20 15 0 8 5 15 10 15 6 0 10 -7 10 -15 0 -8 9 -15 20 -15 25
0 26 28 3 46 -17 13 -17 13 0 14 10 0 17 8 17 19 0 29 -21 37 -37 15 -13 -18
-15 -18 -24 -1 -10 18 -21 21 -32 10z m23 -77 c0 -3 -4 -8 -10 -11 -5 -3 -10
-1 -10 4 0 6 5 11 10 11 6 0 10 -2 10 -4z m60 -6 c0 -5 -2 -10 -4 -10 -3 0 -8
5 -11 10 -3 6 -1 10 4 10 6 0 11 -4 11 -10z"/>
<path d="M2670 835 c0 -30 5 -55 10 -55 6 0 10 11 10 25 0 18 5 25 20 25 15 0
20 -7 20 -25 0 -14 5 -25 10 -25 6 0 10 25 10 55 0 30 -4 55 -10 55 -5 0 -10
-11 -10 -25 0 -18 -5 -25 -20 -25 -15 0 -20 7 -20 25 0 14 -4 25 -10 25 -5 0
-10 -25 -10 -55z"/>
<path d="M495 840 c11 -5 31 -9 45 -9 20 -1 22 1 10 9 -8 5 -28 9 -45 9 -26 0
-27 -2 -10 -9z"/>
<path d="M353 833 c15 -2 39 -2 55 0 15 2 2 4 -28 4 -30 0 -43 -2 -27 -4z"/>
<path d="M505 795 c60 -18 83 -19 69 -5 -6 6 -35 13 -65 15 l-54 5 50 -15z"/>
<path d="M358 698 c-4 -10 -15 -18 -25 -18 -17 -1 -17 -2 -2 -13 15 -11 15
-16 3 -37 -16 -30 -17 -40 -5 -40 5 0 16 18 25 40 19 49 36 52 36 6 0 -24 -5
-36 -17 -40 -11 -3 -7 -4 7 -3 21 2 25 8 28 40 3 32 0 39 -17 44 -11 3 -21 12
-23 22 -3 14 -4 14 -10 -1z"/>
<path d="M510 703 c0 -7 -10 -13 -22 -13 -19 0 -20 -2 -8 -10 13 -8 12 -11 -5
-25 -19 -16 -19 -16 10 -10 28 6 29 5 11 -8 -31 -23 -14 -47 34 -47 22 0 40 4
40 9 0 5 -9 7 -20 4 -26 -7 -53 4 -44 18 4 8 9 7 15 -2 7 -11 9 -10 9 4 0 10
8 17 19 17 11 0 23 5 26 11 4 6 -3 9 -21 7 -15 -2 -29 3 -31 10 -3 7 6 12 24
13 27 2 27 2 3 6 -14 3 -28 10 -32 17 -6 8 -8 8 -8 -1z"/>
<path d="M600 643 c0 -34 4 -63 10 -63 5 0 7 7 4 15 -4 8 -1 15 5 15 6 0 11
-8 12 -17 0 -12 2 -13 6 -5 4 10 8 10 19 2 17 -15 77 -3 67 13 -4 6 -6 31 -6
57 l1 45 -59 1 -59 1 0 -64z m47 15 c2 -17 0 -19 -7 -8 -5 8 -6 18 -4 22 8 12
10 10 11 -14z m46 -5 c-7 -2 -19 -2 -25 0 -7 3 -2 5 12 5 14 0 19 -2 13 -5z
m-63 -13 c0 -5 -4 -10 -10 -10 -5 0 -10 5 -10 10 0 6 5 10 10 10 6 0 10 -4 10
-10z m55 -40 c3 -5 1 -10 -4 -10 -6 0 -11 5 -11 10 0 6 2 10 4 10 3 0 8 -4 11
-10z"/>
<path d="M186 684 c-10 -25 -7 -94 4 -94 6 0 10 25 10 55 0 57 -3 66 -14 39z"/>
<path d="M240 688 c25 -11 25 -11 3 -15 -13 -3 -23 -9 -23 -14 0 -5 10 -9 23
-9 22 0 21 -1 -3 -13 -33 -17 -32 -41 3 -45 15 -2 27 1 27 7 0 6 7 8 15 5 21
-8 19 6 -2 22 -17 12 -17 14 2 28 l20 15 -20 1 c-20 1 -20 1 -1 15 18 14 17
15 -25 14 -41 0 -42 -1 -19 -11z m15 -78 c-3 -5 -10 -10 -16 -10 -5 0 -9 5 -9
10 0 6 7 10 16 10 8 0 12 -4 9 -10z"/>
<path d="M775 689 l-40 -6 38 -2 c20 0 37 -6 37 -12 0 -5 -4 -8 -9 -5 -16 10
-41 -5 -41 -24 0 -11 9 -20 23 -23 22 -4 22 -4 -3 -15 l-25 -11 26 0 c34 -1
53 22 45 54 -5 20 -2 27 16 34 l22 8 -25 4 c-13 2 -42 1 -64 -2z m35 -49 c0
-5 -7 -10 -15 -10 -8 0 -15 5 -15 10 0 6 7 10 15 10 8 0 15 -4 15 -10z"/>
<path d="M2380 690 c0 -5 7 -10 15 -10 8 0 25 -20 37 -45 18 -37 27 -45 47
-44 18 1 20 3 8 6 -9 2 -29 27 -42 54 -18 34 -31 49 -45 49 -11 0 -20 -4 -20
-10z"/>
<path d="M2455 690 c-4 -6 5 -10 20 -10 15 0 24 4 20 10 -3 6 -12 10 -20 10
-8 0 -17 -4 -20 -10z"/>
<path d="M2547 693 c-14 -13 -7 -43 11 -43 16 -1 16 -1 0 -14 -24 -18 -23 -46
2 -46 11 0 20 7 20 15 0 8 5 15 10 15 6 0 10 -7 10 -15 0 -8 9 -15 20 -15 25
0 26 28 3 46 -17 13 -17 13 0 14 10 0 17 8 17 19 0 29 -21 37 -37 15 -13 -18
-15 -18 -24 -1 -10 18 -21 21 -32 10z m23 -77 c0 -3 -4 -8 -10 -11 -5 -3 -10
-1 -10 4 0 6 5 11 10 11 6 0 10 -2 10 -4z m60 -6 c0 -5 -2 -10 -4 -10 -3 0 -8
5 -11 10 -3 6 -1 10 4 10 6 0 11 -4 11 -10z"/>
<path d="M2670 645 c0 -30 5 -55 10 -55 6 0 10 11 10 25 0 18 5 25 20 25 15 0
20 -7 20 -25 0 -14 5 -25 10 -25 6 0 10 25 10 55 0 30 -4 55 -10 55 -5 0 -10
-11 -10 -25 0 -18 -5 -25 -20 -25 -15 0 -20 7 -20 25 0 14 -4 25 -10 25 -5 0
-10 -25 -10 -55z"/>
<path d="M413 677 c4 -10 7 -23 7 -28 0 -5 5 -9 10 -9 16 0 12 26 -7 41 -15
12 -16 12 -10 -4z"/>
<path d="M220 499 l-35 -6 31 -2 c27 -1 32 -5 32 -26 0 -18 -6 -25 -20 -25
-15 0 -18 4 -13 18 5 13 3 14 -6 5 -15 -15 -3 -33 22 -33 11 0 17 -4 14 -10
-3 -5 -16 -10 -27 -10 -12 0 -19 -3 -15 -6 3 -4 18 -4 32 0 21 5 25 12 25 45
0 30 4 40 18 43 34 7 -21 14 -58 7z"/>
<path d="M630 499 c-19 -5 -20 -7 -6 -8 19 -1 19 -1 0 -22 -19 -22 -19 -22 4
-10 12 6 22 16 22 21 0 5 12 10 28 12 l27 3 -25 6 c-14 3 -36 2 -50 -2z"/>
<path d="M790 486 c0 -21 -5 -26 -27 -27 -27 -2 -27 -2 -3 -6 l24 -5 -24 -14
c-21 -12 -22 -14 -5 -12 11 2 25 9 30 16 8 10 16 8 34 -12 14 -15 29 -26 35
-26 6 0 3 5 -7 11 -18 10 -18 12 -1 30 16 18 16 19 -14 19 -25 0 -30 4 -27 20
2 11 0 22 -6 25 -5 4 -9 -5 -9 -19z m50 -40 c0 -11 -19 -15 -25 -6 -3 5 1 10
9 10 9 0 16 -2 16 -4z"/>
<path d="M913 503 c15 -2 39 -2 55 0 15 2 2 4 -28 4 -30 0 -43 -2 -27 -4z"/>
<path d="M341 469 c-13 -17 -21 -33 -18 -35 2 -3 12 7 22 22 l17 27 33 -39
c18 -21 35 -37 38 -34 3 3 -12 24 -32 47 l-38 42 -22 -30z"/>
<path d="M495 491 c20 -4 26 -9 18 -14 -35 -22 -2 -78 44 -76 10 0 3 5 -14 10
-26 8 -33 15 -33 35 0 19 8 29 33 39 l32 14 -55 -1 c-42 0 -48 -2 -25 -7z"/>
<path d="M882 474 c8 -7 108 -7 115 0 4 3 -22 6 -57 6 -35 0 -61 -3 -58 -6z"/>
<path d="M644 446 c-31 -30 -20 -46 29 -45 l42 2 -38 6 c-21 3 -36 11 -35 16
2 6 8 10 13 9 6 -1 16 5 22 12 22 23 -10 23 -33 0z"/>
<path d="M891 427 c-13 -21 -12 -21 5 -5 10 10 16 20 13 22 -3 3 -11 -5 -18
-17z"/>
<path d="M970 443 c0 -6 8 -17 18 -24 16 -13 16 -13 2 6 -8 11 -16 22 -17 24
-2 2 -3 0 -3 -6z"/>
<path d="M778 403 c6 -2 18 -2 25 0 6 3 1 5 -13 5 -14 0 -19 -2 -12 -5z"/>
<path d="M930 203 c0 -7 -10 -13 -22 -13 -19 0 -20 -2 -8 -10 13 -8 12 -11 -5
-25 -19 -16 -19 -16 10 -10 28 6 29 5 11 -8 -31 -23 -14 -47 34 -47 22 0 40 4
40 9 0 5 -9 7 -20 4 -26 -7 -53 4 -44 18 4 8 9 7 15 -2 7 -11 9 -10 9 4 0 10
8 17 19 17 11 0 23 5 26 11 4 6 -3 9 -21 7 -15 -2 -29 3 -31 10 -3 7 6 12 24
13 27 2 27 2 3 6 -14 3 -28 10 -32 17 -6 8 -8 8 -8 -1z"/>
<path d="M1030 195 c-6 -8 -9 -18 -6 -23 2 -4 1 -25 -4 -45 -4 -21 -4 -37 1
-37 5 0 9 6 10 13 0 6 4 3 9 -8 5 -11 9 -14 9 -6 1 13 26 12 76 -4 20 -7 20
-6 1 9 -11 9 -28 16 -38 16 -10 0 -18 5 -18 11 0 6 7 8 15 5 51 -21 51 -21 30
5 -11 13 -13 18 -5 12 8 -7 21 -13 30 -13 12 1 11 3 -4 15 -16 12 -17 17 -6
30 15 18 13 22 -17 27 -13 2 -29 -5 -38 -17 -9 -11 -13 -14 -9 -6 5 10 3 13
-9 8 -11 -4 -14 -2 -10 9 7 18 -1 18 -17 -1z m60 -35 c0 -5 -5 -10 -11 -10 -5
0 -7 5 -4 10 3 6 8 10 11 10 2 0 4 -4 4 -10z"/>
<path d="M203 175 c-12 -14 -18 -27 -13 -30 5 -3 12 0 15 5 5 8 14 5 26 -6 20
-18 19 -18 -13 -36 -28 -14 -30 -17 -11 -18 31 0 83 47 83 76 0 17 -6 24 -19
24 -11 0 -25 2 -33 5 -7 3 -23 -6 -35 -20z m67 -10 c0 -16 -9 -19 -34 -9 -20
8 -11 24 15 24 10 0 19 -7 19 -15z"/>
<path d="M483 194 c10 -10 77 -22 77 -14 0 4 -7 11 -16 14 -20 8 -69 8 -61 0z"/>
<path d="M657 186 c-3 -8 -18 -16 -34 -19 l-28 -4 28 -2 c34 -1 37 -33 5 -55
-18 -13 -19 -16 -6 -16 22 0 48 27 48 51 0 14 7 19 28 20 20 1 22 2 7 6 -11 3
-25 11 -31 19 -10 13 -12 13 -17 0z"/>
<path d="M768 194 c-5 -4 -8 -22 -8 -40 0 -18 -4 -36 -10 -39 -12 -8 -13 -25
-1 -25 14 0 33 55 29 85 -2 15 -6 23 -10 19z"/>
<path d="M800 145 c0 -30 5 -55 10 -55 14 0 50 37 50 52 0 6 -9 3 -20 -7 -20
-18 -20 -17 -20 23 0 23 -4 42 -10 42 -5 0 -10 -25 -10 -55z"/>
<path d="M1205 191 c41 -5 46 -8 28 -14 -18 -6 -23 -16 -23 -42 0 -18 -6 -35
-12 -38 -7 -2 -10 -8 -6 -12 16 -17 38 5 38 37 0 23 8 39 28 55 l27 22 -65 -1
-65 -1 50 -6z"/>
<path d="M2547 193 c-14 -13 -7 -43 11 -43 16 -1 16 -1 0 -14 -24 -18 -23 -46
2 -46 11 0 20 7 20 15 0 8 5 15 10 15 6 0 10 -7 10 -15 0 -8 9 -15 20 -15 25
0 26 28 3 46 -17 13 -17 13 0 14 10 0 17 8 17 19 0 29 -21 37 -37 15 -13 -18
-15 -18 -24 -1 -10 18 -21 21 -32 10z m23 -77 c0 -3 -4 -8 -10 -11 -5 -3 -10
-1 -10 4 0 6 5 11 10 11 6 0 10 -2 10 -4z m60 -6 c0 -5 -2 -10 -4 -10 -3 0 -8
5 -11 10 -3 6 -1 10 4 10 6 0 11 -4 11 -10z"/>
<path d="M2682 188 c-16 -16 -15 -75 1 -85 22 -14 81 -32 87 -26 3 3 0 8 -6
10 -8 2 -10 18 -7 43 4 25 1 46 -7 55 -15 18 -51 20 -68 3z m58 -48 c0 -35
-29 -49 -47 -24 -14 19 -8 54 11 66 16 11 36 -12 36 -42z"/>
<path d="M495 150 c11 -5 31 -9 45 -9 20 -1 22 1 10 9 -8 5 -28 9 -45 9 -26 0
-27 -2 -10 -9z"/>
<path d="M353 143 c15 -2 39 -2 55 0 15 2 2 4 -28 4 -30 0 -43 -2 -27 -4z"/>
<path d="M480 112 c49 -17 106 -24 94 -13 -6 7 -35 14 -65 16 -37 4 -46 2 -29
-3z"/>
<path d="M2865 10 c-3 -5 -1 -10 4 -10 6 0 11 5 11 10 0 6 -2 10 -4 10 -3 0
-8 -4 -11 -10z"/>
</g>
</svg>
